<svg width="26" height="26" viewBox="0 0 26 26" fill="none" xmlns="http://www.w3.org/2000/svg">
<g clip-path="url(#clip0_958_3563)">
<path d="M3.4577 12.2247C3.84226 11.7743 4.05886 11.9725 4.66187 12.1314C4.66187 12.1314 2.92565 9.37159 5.55944 9.64886C5.55944 9.64886 3.92879 8.2326 4.83973 7.34155C5.75067 6.45049 7.16369 8.1163 7.16369 8.1163C7.16369 8.1163 6.7948 7.45153 6.98803 6.94484C7.22187 6.33164 8.11948 5.94997 9.42766 7.2582C9.49548 7.32602 9.57707 7.3887 9.65713 7.46108C9.82343 6.8327 10.4616 6.00609 11.4494 6.99386C11.4494 6.99386 10.4197 5.01406 11.6332 4.5034C12.8467 3.99275 13.5726 6.12979 13.5726 6.12979C13.5726 6.12979 13.5901 5.4779 13.9169 5.1285C14.3629 4.65159 15.2377 4.59096 16.074 6.16421C17.0272 7.95749 18.7417 12.5087 18.7417 12.5087C18.7417 12.5087 18.1499 8.75227 19.803 8.52118C20.8601 8.37344 21.5964 10.7785 21.9512 13.2616C22.2676 15.4756 22.3312 17.6392 21.0801 18.8506L22.5505 22.6548L16.8537 25.0684L16.0163 23.1796L14.8142 21.2468C14.8142 21.2468 11.7322 21.8192 9.42996 19.4656L3.9048 13.9205C3.9048 13.9205 2.7067 13.1041 3.4577 12.2247Z" fill="#FFDCD4"/>
<path d="M3.71352 11.4338C3.53869 11.1758 3.44193 10.8686 3.44193 10.5531C3.44193 10.1562 3.59085 9.77703 3.8617 9.48507C4.00843 9.32709 4.18633 9.20125 4.38416 9.1155C3.80749 8.4596 3.764 7.51051 4.31222 6.92058C4.59184 6.61975 4.98345 6.45409 5.41492 6.45409C5.80413 6.45409 6.18517 6.58719 6.50631 6.83155C6.57787 6.6282 6.69062 6.44181 6.83749 6.28402C7.42567 5.65167 8.41844 5.6148 9.0522 6.20106L9.45958 6.56981C9.6074 6.41466 9.78537 6.29137 9.98258 6.20753C10.181 6.12336 10.3947 6.08123 10.6102 6.08378C10.352 5.24948 10.7003 4.36572 11.4422 4.05144C11.6199 3.97622 11.8109 3.93763 12.0038 3.93797C12.5985 3.93797 13.1704 4.30544 13.4801 4.8684C13.6285 4.71163 13.8077 4.58725 14.0064 4.50308C14.3924 4.33933 14.8189 4.33585 15.2074 4.49309C15.5946 4.6499 15.8978 4.94773 16.0616 5.33204L18.3022 10.4274L18.2641 9.90357C18.1736 9.14733 18.5665 8.44799 19.2465 8.15966C19.9537 7.86236 20.8136 8.07847 21.2891 8.68226C21.4112 8.8373 21.523 9.02799 21.566 9.2225L22.6928 14.3493C23.3348 16.7027 21.6188 19.1975 21.6188 19.1975L23.0024 22.4634C23.1081 22.713 22.9915 23.0009 22.742 23.1067L21.7598 23.5228C21.4996 23.633 21.1926 23.494 21.103 23.2265C21.0226 22.9868 21.1444 22.7178 21.377 22.6192L21.9074 22.3945L20.6191 19.3534C20.5103 19.0964 20.6645 18.8789 20.7934 18.6662C21.2161 17.9685 22.206 16.3347 21.7417 14.5912C21.7399 14.5842 21.7382 14.5772 21.7367 14.5702L20.6134 9.4599C20.4908 9.12123 20.0864 8.94724 19.747 9.02564C19.5784 9.06462 19.4294 9.16383 19.337 9.31118C19.2375 9.4697 19.2288 9.63923 19.242 9.82027L19.4682 12.9347C19.4864 13.1652 19.522 13.4031 19.3359 13.5808C19.0946 13.8112 18.6829 13.7311 18.548 13.4239L15.1621 5.72449C15.0256 5.41999 14.6713 5.26941 14.3623 5.41906C14.0842 5.55373 13.9566 5.89167 14.0777 6.17668L16.5582 12.0316C16.6672 12.2888 16.5357 12.57 16.2869 12.6787C16.036 12.7884 15.737 12.6835 15.628 12.426L12.6625 5.42602C12.5294 5.11168 12.1421 4.78128 11.7873 4.97329C11.4718 5.14395 11.4562 5.591 11.5804 5.88437L13.406 10.1931C13.4081 10.1977 13.4101 10.2022 13.4121 10.2068L14.5463 12.8844C14.6551 13.1413 14.5235 13.4281 14.2713 13.5329C14.0199 13.6374 13.7252 13.5361 13.6161 13.2783L11.1355 7.42325C11.0223 7.15563 10.7181 7.00818 10.4379 7.08585C10.1006 7.17933 9.91735 7.5589 10.0534 7.88166L12.534 13.7366C12.6312 13.9663 12.5355 14.2398 12.3166 14.359C12.0517 14.5031 11.7008 14.3587 11.5853 14.086L9.53945 9.25751C9.41502 8.96384 9.06474 8.82952 8.77254 8.95272C8.48092 9.07574 8.33264 9.42195 8.45732 9.71587C8.45732 9.71587 11.9864 18.0468 11.9899 18.0567C12.5108 19.5467 14.8616 20.7156 15.2892 20.8765C15.356 20.8985 15.4173 20.9345 15.4691 20.9819C15.521 21.0294 15.5621 21.0874 15.5899 21.1519L16.9975 24.4745L17.337 24.3307C17.5865 24.2251 17.8745 24.3416 17.9802 24.5911C18.086 24.8407 17.9694 25.1286 17.7199 25.2343L16.9286 25.5696C16.6823 25.6739 16.3894 25.555 16.2853 25.3092L14.8287 21.8708C14.6923 21.8808 14.554 21.8859 14.4141 21.8859C12.7927 21.8858 10.9765 21.225 9.84649 20.1749L3.23562 14.0288C2.93005 13.7445 2.75415 13.3574 2.74044 12.939C2.72677 12.5217 2.87598 12.1232 3.16079 11.8167C3.31516 11.6506 3.50374 11.5199 3.71352 11.4338ZM5.41487 7.43544C5.1615 7.43544 4.94535 7.59616 4.91097 7.85321C4.87689 8.10775 5.005 8.36641 5.18805 8.53673L7.9994 11.1501L7.55402 10.0989C7.41441 9.76978 7.39291 9.41093 7.48894 9.07148L5.98787 7.67603C5.82353 7.52315 5.61472 7.43544 5.41487 7.43544ZM9.04951 7.92446C9.02503 7.78641 9.01974 7.64665 9.03276 7.50709L8.39141 6.9266C8.38981 6.92516 8.38823 6.92371 8.38665 6.92224C8.14925 6.70168 7.77664 6.71515 7.55608 6.95226C7.45476 7.06087 7.39846 7.20391 7.39859 7.35244C7.39859 7.51737 7.46529 7.6702 7.58619 7.78274L8.06928 8.23184C8.35105 8.0245 8.69957 7.91412 9.04951 7.92446ZM3.90406 13.3103L10.5147 19.4561C11.1625 20.0581 12.1061 20.5142 13.0772 20.7424C12.0361 20.0041 11.3607 19.2156 11.0692 18.3962L8.96332 13.4254L5.41096 10.1229C5.19329 9.92061 4.84604 9.91542 4.62284 10.1119C4.36511 10.3388 4.35992 10.7499 4.61089 10.9834L9.26806 15.3132C9.45581 15.4877 9.47545 15.7866 9.31267 15.9843C9.12551 16.2119 8.75731 16.2172 8.54492 16.0198L4.70462 12.4495C4.48787 12.2483 4.14357 12.2487 3.92262 12.443C3.66773 12.6672 3.65348 13.0771 3.90406 13.3103ZM8.69502 3.72691C8.43797 3.80086 8.16174 3.64812 8.08769 3.39122L7.44545 1.16148C7.37043 0.901111 7.52077 0.629181 7.78114 0.55416C8.04161 0.479285 8.31345 0.629475 8.38847 0.889848L9.03071 3.11959C9.10573 3.38001 8.95544 3.65189 8.69502 3.72691ZM6.7233 4.26729C6.48854 4.39584 6.18566 4.30711 6.05721 4.07269L5.02498 2.18823C4.89476 1.95058 4.98193 1.65236 5.21958 1.52215C5.45723 1.39198 5.75541 1.47905 5.88567 1.71675L6.9179 3.60121C7.04811 3.83886 6.96095 4.13708 6.7233 4.26729ZM4.88482 5.23846C4.68341 5.41436 4.36829 5.39296 4.19249 5.19165L2.74866 3.53853C2.57041 3.33442 2.59137 3.02449 2.79548 2.84619C2.99954 2.66794 3.30951 2.68885 3.48781 2.89301L4.93164 4.54613C5.10989 4.75023 5.08893 5.06021 4.88482 5.23846Z" fill="black"/>
<path d="M19.3421 24.3548C19.0967 24.2413 18.9897 23.9504 19.1032 23.705C19.2167 23.4596 19.5077 23.3526 19.7531 23.4661C19.9985 23.5796 20.1054 23.8706 19.9919 24.116C19.8784 24.3614 19.5875 24.4683 19.3421 24.3548Z" fill="black"/>
</g>
<defs>
<clipPath id="clip0_958_3563">
<rect width="25.0725" height="25.0725" fill="white" transform="matrix(-1 0 0 1 25.3708 0.534912)"/>
</clipPath>
</defs>
</svg>
