<svg width="28" height="28" viewBox="0 0 28 28" fill="none" xmlns="http://www.w3.org/2000/svg">
<g id="Frame" clip-path="url(#clip0_985_3280)">
<g id="Group">
<path id="Vector" d="M13.6164 18.6461L11.1169 11.9574C11.1132 11.9475 11.1094 11.9378 11.1054 11.928C10.9172 11.466 10.4764 11.1677 9.9819 11.1677H9.9806C9.48568 11.1682 9.04476 11.4676 8.85735 11.9304C8.85412 11.9384 8.85094 11.9465 8.84787 11.9546L6.32542 18.643C6.11645 19.1971 6.39166 19.8174 6.94011 20.0284C7.48127 20.2368 8.10523 19.9544 8.3115 19.4074L8.67899 18.433H11.265L11.628 19.4044C11.8326 19.952 12.4558 20.2363 12.9975 20.0296C13.5466 19.8202 13.8237 19.2008 13.6164 18.6461ZM9.4888 16.2859L9.97799 14.9889L10.4627 16.2859H9.4888Z" fill="#6CF5C2"/>
<path id="Vector_2" d="M13.6165 18.6461L11.117 11.9574C11.1133 11.9475 11.1095 11.9378 11.1055 11.928C10.9173 11.466 10.4765 11.1677 9.982 11.1677H9.9807C9.80096 11.1678 9.6235 11.208 9.4613 11.2855C9.72876 11.4133 9.94602 11.6385 10.064 11.928C10.0679 11.9378 10.0717 11.9475 10.0754 11.9574L12.575 18.6461C12.7625 19.1479 12.5528 19.7016 12.1047 19.9579C12.3703 20.1073 12.6964 20.1445 12.9976 20.0296C13.5467 19.8202 13.8238 19.2008 13.6165 18.6461Z" fill="#00F2A6"/>
<path id="Vector_3" d="M6.913 6.20996C6.32612 6.20996 5.85031 6.69061 5.85031 7.28353V9.48567H3.32704V7.28353C3.32704 6.69061 2.85123 6.20996 2.26435 6.20996C1.67747 6.20996 1.20166 6.69061 1.20166 7.28353V14.0675C1.20166 14.6604 1.67747 15.1411 2.26435 15.1411C2.85123 15.1411 3.32704 14.6604 3.32704 14.0675V11.6328H5.85037V14.0675C5.85037 14.6604 6.32617 15.1411 6.91305 15.1411C7.49994 15.1411 7.97574 14.6604 7.97574 14.0675V7.28353C7.97569 6.69061 7.49994 6.20996 6.913 6.20996Z" fill="#FEE45A"/>
<path id="Vector_4" d="M6.91284 6.20996C6.72349 6.20996 6.54607 6.26058 6.39209 6.34827C6.55701 6.44238 6.69404 6.5785 6.78923 6.74279C6.88443 6.90708 6.93439 7.09366 6.93403 7.28353V14.0675C6.93439 14.2574 6.88443 14.444 6.78923 14.6083C6.69404 14.7725 6.55701 14.9087 6.39209 15.0028C6.55066 15.0934 6.73017 15.1411 6.91284 15.1411C7.49972 15.1411 7.97552 14.6604 7.97552 14.0675V7.28353C7.97552 6.69061 7.49977 6.20996 6.91284 6.20996Z" fill="#FED402"/>
<path id="Vector_5" d="M25.0703 20.4816L22.5707 13.7928C22.5671 13.783 22.5632 13.7732 22.5593 13.7635C22.3711 13.3015 21.9303 13.0032 21.4358 13.0032H21.4345C20.9395 13.0037 20.4986 13.3031 20.3112 13.7658C20.308 13.7738 20.3048 13.782 20.3017 13.7901L17.7793 20.4785C17.5703 21.0325 17.8455 21.6528 18.394 21.8639C18.9351 22.0723 19.5591 21.7898 19.7654 21.2429L20.1328 20.2685H22.7188L23.0818 21.2398C23.2865 21.7875 23.9096 22.0717 24.4513 21.865C25.0005 21.6557 25.2776 21.0363 25.0703 20.4816ZM20.9427 18.1214L21.4319 16.8244L21.9166 18.1214H20.9427Z" fill="#E8EDF2"/>
<path id="Vector_6" d="M25.0701 20.4816L22.5706 13.7928C22.5669 13.783 22.5631 13.7732 22.5591 13.7635C22.3709 13.3015 21.9301 13.0032 21.4356 13.0032H21.4343C21.2546 13.0032 21.0771 13.0435 20.9149 13.1209C21.1824 13.2487 21.3996 13.4739 21.5176 13.7635C21.5215 13.7732 21.5253 13.7829 21.529 13.7928L24.0286 20.4816C24.2161 20.9834 24.0064 21.5371 23.5583 21.7933C23.8239 21.9428 24.15 21.98 24.4512 21.8651C25.0003 21.6557 25.2774 21.0363 25.0701 20.4816Z" fill="#D9E7EC"/>
<path id="Vector_7" d="M18.3667 8.04541C17.7798 8.04541 17.304 8.52606 17.304 9.11898V11.3211H14.7806V9.11898C14.7806 8.52606 14.3048 8.04541 13.718 8.04541C13.1311 8.04541 12.6553 8.52606 12.6553 9.11898V15.903C12.6553 16.4959 13.1311 16.9765 13.718 16.9765C14.3048 16.9765 14.7806 16.4959 14.7806 15.903V13.4682H17.304V15.903C17.304 16.4959 17.7798 16.9765 18.3667 16.9765C18.9535 16.9765 19.4294 16.4959 19.4294 15.903V9.11893C19.4294 8.52606 18.9535 8.04541 18.3667 8.04541Z" fill="#B6C4CF"/>
<path id="Vector_8" d="M18.3667 8.04541C18.1774 8.04541 17.9999 8.09603 17.8459 8.18372C18.0109 8.27783 18.1479 8.41395 18.2431 8.57824C18.3383 8.74253 18.3883 8.92911 18.3879 9.11898V15.903C18.3883 16.0928 18.3383 16.2794 18.2431 16.4437C18.1479 16.608 18.0109 16.7441 17.8459 16.8382C18.0045 16.9289 18.184 16.9766 18.3667 16.9765C18.9536 16.9765 19.4294 16.4959 19.4294 15.903V9.11898C19.4294 8.52611 18.9536 8.04541 18.3667 8.04541Z" fill="#9FACBA"/>
<path id="Vector_9" d="M26.0192 16.9019C25.4323 16.9019 24.9565 16.4213 24.9565 15.8284V11.1024C24.9565 10.5095 25.4323 10.0288 26.0192 10.0288C26.6061 10.0288 27.0819 10.5095 27.0819 11.1024V15.8284C27.0819 16.4213 26.6061 16.9019 26.0192 16.9019Z" fill="#FE73C5"/>
<path id="Vector_10" d="M26.0194 10.0291C25.8301 10.0291 25.6526 10.0797 25.4987 10.1674C25.6636 10.2615 25.8006 10.3976 25.8958 10.5619C25.991 10.7262 26.041 10.9127 26.0406 11.1026V15.8286C26.041 16.0185 25.991 16.2051 25.8958 16.3694C25.8006 16.5336 25.6636 16.6698 25.4987 16.7639C25.6572 16.8545 25.8367 16.9022 26.0194 16.9022C26.6063 16.9022 27.0821 16.4215 27.0821 15.8286V11.1026C27.0821 10.5097 26.6063 10.0291 26.0194 10.0291Z" fill="#FE4FB7"/>
<path id="Vector_11" d="M26.02 21.0212C25.4331 21.0212 24.9569 20.5405 24.9569 19.9476C24.9569 19.3547 25.4324 18.874 26.0192 18.874H26.0199C26.6068 18.874 27.0826 19.3547 27.0826 19.9476C27.0826 20.5405 26.6069 21.0212 26.02 21.0212Z" fill="#FE73C5"/>
<path id="Vector_12" d="M26.0199 18.874H26.0192C25.83 18.874 25.6527 18.9245 25.4989 19.0121C25.6639 19.1062 25.801 19.2424 25.8963 19.4067C25.9915 19.571 26.0415 19.7577 26.0412 19.9476C26.0415 20.1375 25.9916 20.3241 25.8963 20.4884C25.8011 20.6527 25.6641 20.7888 25.4992 20.8829C25.6578 20.9736 25.8373 21.0212 26.02 21.0212C26.6069 21.0212 27.0826 20.5405 27.0826 19.9476C27.0826 19.3547 26.6068 18.874 26.0199 18.874Z" fill="#FE4FB7"/>
<path id="Vector_13" d="M13.6164 18.6461L11.1169 11.9574C11.1132 11.9475 11.1094 11.9378 11.1054 11.928C10.9172 11.466 10.4764 11.1677 9.9819 11.1677H9.9806C9.48568 11.1682 9.04476 11.4676 8.85735 11.9304C8.85412 11.9384 8.85094 11.9465 8.84787 11.9546L6.32542 18.643C6.11645 19.1971 6.39166 19.8174 6.94011 20.0284C7.48127 20.2368 8.10523 19.9544 8.3115 19.4074L8.67899 18.433H11.265L11.628 19.4044C11.8326 19.952 12.4558 20.2363 12.9975 20.0296C13.5466 19.8202 13.8237 19.2008 13.6164 18.6461ZM9.4888 16.2859L9.97799 14.9889L10.4627 16.2859H9.4888Z" stroke="black" stroke-width="0.78112" stroke-miterlimit="10" stroke-linecap="round" stroke-linejoin="round"/>
<path id="Vector_14" d="M1.20166 10.0809V14.0675C1.20166 14.6604 1.67747 15.1411 2.26435 15.1411C2.85123 15.1411 3.32704 14.6604 3.32704 14.0675V11.6328H5.85037V14.0675C5.85037 14.6604 6.32617 15.1411 6.91305 15.1411C7.49994 15.1411 7.97574 14.6604 7.97574 14.0675V7.28353C7.97574 6.69061 7.49994 6.20996 6.91305 6.20996C6.32617 6.20996 5.85037 6.69061 5.85037 7.28353V9.48567H3.32704V7.28353C3.32704 6.69061 2.85123 6.20996 2.26435 6.20996C1.67747 6.20996 1.20166 6.69061 1.20166 7.28353V8.60342M25.0702 20.4814L22.5707 13.7927C22.567 13.7829 22.5632 13.7731 22.5592 13.7633C22.371 13.3013 21.9302 13.003 21.4357 13.003H21.4344C20.9395 13.0036 20.4986 13.3029 20.3111 13.7657C20.3079 13.7737 20.3047 13.7818 20.3017 13.7899L17.7792 20.4784C17.5702 21.0324 17.8455 21.6527 18.3939 21.8638C18.9351 22.0722 19.559 21.7897 19.7653 21.2428L20.1328 20.2684H22.7188L23.0818 21.2397C23.2864 21.7874 23.9096 22.0716 24.4513 21.8649C25.0004 21.6556 25.2775 21.0361 25.0702 20.4814ZM20.9426 18.1213L21.4318 16.8243L21.9165 18.1213H20.9426Z" stroke="black" stroke-width="0.78112" stroke-miterlimit="10" stroke-linecap="round" stroke-linejoin="round"/>
<path id="Vector_15" d="M27.082 14.989V15.8284C27.082 16.4214 26.6062 16.902 26.0193 16.902C25.4324 16.902 24.9566 16.4214 24.9566 15.8284V11.1025C24.9566 10.5095 25.4324 10.0289 26.0193 10.0289C26.6062 10.0289 27.082 10.5095 27.082 11.1025V13.4654M18.3667 8.04541C17.7798 8.04541 17.304 8.52606 17.304 9.11898V11.3211H14.7806V9.11898C14.7806 8.52606 14.3048 8.04541 13.718 8.04541C13.1311 8.04541 12.6553 8.52606 12.6553 9.11898V15.903C12.6553 16.4959 13.1311 16.9765 13.718 16.9765C14.3048 16.9765 14.7806 16.4959 14.7806 15.903V13.4682H17.304V15.903C17.304 16.4959 17.7798 16.9765 18.3667 16.9765C18.9535 16.9765 19.4294 16.4959 19.4294 15.903V9.11893C19.4294 8.52606 18.9535 8.04541 18.3667 8.04541ZM26.02 21.0213C25.4331 21.0213 24.9569 20.5407 24.9569 19.9478C24.9569 19.3548 25.4324 18.8742 26.0192 18.8742H26.0199C26.6069 18.8742 27.0826 19.3548 27.0826 19.9478C27.0826 20.5407 26.6069 21.0213 26.02 21.0213Z" stroke="black" stroke-width="0.78112" stroke-miterlimit="10" stroke-linecap="round" stroke-linejoin="round"/>
</g>
</g>
<defs>
<clipPath id="clip0_985_3280">
<rect width="26.6622" height="26.6622" fill="white" transform="translate(0.811035 0.740234)"/>
</clipPath>
</defs>
</svg>
