<svg width="26" height="26" viewBox="0 0 26 26" fill="none" xmlns="http://www.w3.org/2000/svg">
<g id="Frame" clip-path="url(#clip0_985_3269)">
<g id="Group">
<path id="Vector" d="M21.3959 18.2387V8.8707C21.3959 8.52329 21.3047 8.18196 21.1315 7.88084C20.9582 7.57972 20.7089 7.32936 20.4086 7.15478L12.3702 2.48242C12.0673 2.30636 11.7232 2.21362 11.3729 2.21362C11.0225 2.21362 10.6784 2.30636 10.3755 2.48242L2.33709 7.15478C2.03673 7.32936 1.78745 7.57972 1.61419 7.88084C1.44092 8.18196 1.34973 8.52329 1.34973 8.8707V18.2387C1.34973 18.5861 1.44092 18.9274 1.61418 19.2285C1.78745 19.5296 2.03672 19.78 2.33709 19.9546L10.3755 24.6269C10.6784 24.803 11.0225 24.8957 11.3729 24.8957C11.7232 24.8957 12.0673 24.803 12.3702 24.6269L20.4086 19.9546C20.709 19.78 20.9582 19.5296 21.1315 19.2285C21.3047 18.9274 21.3959 18.5861 21.3959 18.2387Z" fill="#FF5151"/>
<path id="Vector_2" d="M17.9432 12.1935C17.9432 10.2173 16.3451 8.61523 14.3738 8.61523C13.1144 8.61523 12.0082 9.26968 11.3728 10.2572C10.7374 9.26968 9.63123 8.61523 8.3718 8.61523C6.40046 8.61523 4.80237 10.2173 4.80237 12.1935C4.80237 16.7422 11.2073 19.8946 11.3707 19.9453L11.3709 19.9465L11.3727 19.9459L11.3746 19.9465L11.3747 19.9453C11.5383 19.8946 17.9432 16.7422 17.9432 12.1935Z" fill="#F9F7F8"/>
<path id="Vector_3" d="M14.3738 8.61523C14.0347 8.61523 13.7069 8.66304 13.3962 8.75166C14.8931 9.1773 15.9901 10.5565 15.9901 12.1935C15.9901 15.6801 12.2272 18.3462 10.3962 19.424C10.954 19.7524 11.3326 19.9334 11.3708 19.9453L11.3709 19.9465L11.3728 19.9459L11.3747 19.9465L11.3748 19.9453C11.5383 19.8946 17.9432 16.7422 17.9432 12.1935C17.9432 10.2173 16.3451 8.61523 14.3738 8.61523Z" fill="#EEECF4"/>
<path id="Vector_4" d="M21.3959 9.71084C23.7274 9.71084 25.6173 7.81616 25.6173 5.47895C25.6173 3.14175 23.7274 1.24707 21.3959 1.24707C19.0645 1.24707 17.1746 3.14175 17.1746 5.47895C17.1746 7.81616 19.0645 9.71084 21.3959 9.71084Z" fill="#FFE177"/>
<path id="Vector_5" d="M21.3959 1.24707C21.0597 1.24707 20.7328 1.28667 20.4193 1.36113C22.2798 1.80293 23.6641 3.47876 23.6641 5.47895C23.6641 7.47915 22.2798 9.15503 20.4193 9.59678C20.7393 9.67269 21.067 9.71097 21.3959 9.71084C23.7273 9.71084 25.6173 7.81616 25.6173 5.47895C25.6173 3.14175 23.7273 1.24707 21.3959 1.24707Z" fill="#FECE85"/>
<path id="Vector_6" d="M17.1794 5.27783L12.3702 2.48242C12.0673 2.30636 11.7232 2.21362 11.3729 2.21362C11.0225 2.21362 10.6784 2.30636 10.3755 2.48242L2.33708 7.15478C2.03673 7.32936 1.78745 7.57972 1.61419 7.88084C1.44092 8.18196 1.34973 8.52329 1.34973 8.8707V18.2387C1.34973 18.5861 1.44092 18.9274 1.61418 19.2285C1.78745 19.5296 2.03672 19.78 2.33708 19.9546L10.3755 24.6269C10.6784 24.803 11.0225 24.8957 11.3729 24.8957C11.7232 24.8957 12.0673 24.803 12.3702 24.6269L20.4086 19.9546C20.709 19.78 20.9582 19.5296 21.1315 19.2285C21.3048 18.9274 21.396 18.5861 21.396 18.2387V9.71069" stroke="black" stroke-width="0.732422" stroke-miterlimit="10" stroke-linecap="round" stroke-linejoin="round"/>
<path id="Vector_7" d="M6.58098 16.3449C8.48943 18.553 11.2639 19.9121 11.3708 19.9453L11.371 19.9465L11.3728 19.9459L11.3747 19.9465L11.3748 19.9453C11.5383 19.8946 17.9432 16.7422 17.9432 12.1935C17.9432 10.2173 16.3451 8.61523 14.3738 8.61523C13.1144 8.61523 12.0082 9.26968 11.3728 10.2572C10.7374 9.26968 9.63118 8.61523 8.3718 8.61523C6.40046 8.61523 4.80237 10.2173 4.80237 12.1935C4.80237 13.2746 5.16453 14.2765 5.71829 15.1769" stroke="black" stroke-width="0.732422" stroke-miterlimit="10" stroke-linecap="round" stroke-linejoin="round"/>
<path id="Vector_8" d="M8.93577 16.3647C7.80247 15.383 6.45154 13.8625 6.45154 12.1936M24.123 2.24897C23.3873 1.62412 22.4356 1.24707 21.3958 1.24707C19.0644 1.24707 17.1744 3.14175 17.1744 5.47895C17.1744 7.81616 19.0644 9.71084 21.3958 9.71084C23.7272 9.71084 25.6172 7.81616 25.6172 5.47895C25.6172 4.70469 25.4096 3.9791 25.0474 3.35474M21.3959 3.76509V7.19277M23.1055 5.47895H19.6863" stroke="black" stroke-width="0.732422" stroke-miterlimit="10" stroke-linecap="round" stroke-linejoin="round"/>
</g>
</g>
<defs>
<clipPath id="clip0_985_3269">
<rect width="25" height="25" fill="white" transform="translate(0.983521 0.571533)"/>
</clipPath>
</defs>
</svg>
