<svg width="26" height="26" viewBox="0 0 26 26" fill="none" xmlns="http://www.w3.org/2000/svg">
<g clip-path="url(#clip0_958_3568)">
<path d="M8.34003 21.3317C10.0086 21.3317 11.3612 19.979 11.3612 18.3105C11.3612 16.6419 10.0086 15.2893 8.34003 15.2893C6.67148 15.2893 5.31885 16.6419 5.31885 18.3105C5.31885 19.979 6.67148 21.3317 8.34003 21.3317Z" fill="#FF7D99"/>
<path d="M8.12907 19.0778C8.23284 20.8457 9.70526 22.2469 11.4992 22.2469C12.1562 22.2469 12.7694 22.0589 13.2877 21.7337L15.0575 25.1178H17.0232V22.1706C18.568 22.1448 19.8599 21.0797 20.2298 19.6442L20.2133 19.6297H20.2129L20.2131 19.6295L20.2133 19.6297C21.8745 19.4768 23.1756 18.0801 23.1756 16.379C23.1756 15.0265 22.3336 13.8619 21.1617 13.3663C21.2375 13.0657 21.2715 12.7446 21.2574 12.4174C21.1864 10.7676 19.8724 9.41808 18.225 9.30432C17.7058 9.26848 17.2109 9.35535 16.7648 9.53708L17.291 9.21158C16.702 8.32478 15.6942 7.74023 14.5499 7.74023C13.675 7.74023 12.88 8.0819 12.2909 8.63902C11.7217 8.16735 10.991 7.88386 10.194 7.88386C8.89447 7.88386 7.77101 8.63765 7.23699 9.73193C5.46772 9.78545 4.04991 11.2365 4.04991 13.0188C4.0498 13.3654 4.10449 13.7098 4.21195 14.0393C3.85084 14.5876 3.64625 15.2482 3.65981 15.9569C3.69453 17.7733 5.1883 19.2482 7.00493 19.2611C7.38734 19.2643 7.7675 19.2023 8.12907 19.0778Z" fill="#FF7D99"/>
<path d="M19.8167 4.05646L21.2441 4.88052L19.3741 7.41147L24.9052 5.54499L23.1541 4.53397L25.464 2.64237L22.6591 1.0249L19.8167 4.05646ZM2.70343 6.53163L4.13075 5.70757L5.42708 8.20918L6.32332 2.98369L4.78562 3.88022L4.27849 1.0249L1.37097 2.54237L2.70343 6.53163Z" fill="#FFCF5C"/>
<path d="M20.971 13.8173C21.6756 14.1153 22.2353 14.6942 22.5068 15.4055C22.5421 15.4983 22.6048 15.578 22.6865 15.6343C22.7683 15.6906 22.8652 15.7208 22.9644 15.7208C23.024 15.7208 23.0832 15.7098 23.1389 15.6885C23.3916 15.5921 23.5182 15.309 23.4218 15.0564C23.1034 14.2222 22.4917 13.5234 21.7136 13.0914C21.738 12.9168 21.7503 12.7397 21.7503 12.5618C21.7503 10.4913 20.0659 8.80683 17.9953 8.80683C17.8693 8.80683 17.744 8.81379 17.6197 8.82627C17.134 8.14981 16.4485 7.66187 15.6727 7.42094L16.2938 5.85896C16.3207 5.79139 16.3322 5.71867 16.3275 5.6461C16.3227 5.57352 16.3019 5.50291 16.2664 5.4394C16.231 5.37589 16.1819 5.32107 16.1226 5.27893C16.0633 5.23679 15.9954 5.20838 15.9238 5.19577L15.3536 5.09523L15.8486 3.85018C15.9486 3.59887 15.8258 3.31416 15.5745 3.21421C15.3231 3.11431 15.0385 3.23703 14.9386 3.48834L14.2213 5.29214C14.1944 5.35971 14.1829 5.43243 14.1877 5.505C14.1924 5.57758 14.2132 5.64818 14.2487 5.71169C14.2841 5.77521 14.3332 5.83003 14.3925 5.87217C14.4518 5.91431 14.5197 5.94272 14.5913 5.95533L15.1615 6.05587L14.6853 7.25332C14.6402 7.25163 14.5951 7.25075 14.5499 7.25068C13.7194 7.25068 12.9239 7.51986 12.2701 8.01573C11.6534 7.61074 10.9318 7.39475 10.194 7.39431C8.83465 7.39431 7.61002 8.10304 6.93326 9.26225C6.05832 9.35524 5.24876 9.74808 4.6288 10.3859C3.9398 11.0948 3.56028 12.0299 3.56028 13.0188C3.56028 13.34 3.60088 13.6583 3.68114 13.9678C3.34575 14.5508 3.16956 15.2109 3.16956 15.8911C3.16956 17.2431 3.86884 18.4342 4.92419 19.1238C5.29655 20.6969 6.70619 21.8215 8.34001 21.8215C8.54407 21.8215 8.74754 21.8037 8.94738 21.7689C9.5998 22.3453 10.4471 22.7057 11.3761 22.7347C11.9693 22.7534 12.5503 22.6377 13.0826 22.398L14.6237 25.3448C14.6652 25.424 14.7275 25.4904 14.804 25.5367C14.8805 25.5831 14.9682 25.6076 15.0577 25.6076H17.0234C17.2938 25.6076 17.5131 25.3883 17.5131 25.1179V22.6219C18.9341 22.4182 20.1396 21.4307 20.6129 20.0675C21.0637 19.9823 21.4951 19.8148 21.8852 19.5733C22.1152 19.4309 22.1861 19.1291 22.0437 18.8992C21.9014 18.6693 21.5995 18.5984 21.3695 18.7407C20.9323 19.0115 20.4279 19.1546 19.9105 19.1546C18.8936 19.1546 17.9592 18.5994 17.4718 17.7056C17.3422 17.4682 17.0448 17.3807 16.8074 17.5102C16.5699 17.6397 16.4824 17.9372 16.612 18.1746C16.904 18.7107 17.3224 19.1676 17.8308 19.5057C18.3392 19.8437 18.9224 20.0528 19.5298 20.1146C19.0527 21.0435 18.0913 21.6631 17.0152 21.6809C16.8868 21.6831 16.7643 21.7356 16.6742 21.8272C16.5841 21.9188 16.5336 22.0421 16.5337 22.1706V24.6282H15.3541L13.7217 21.5068C13.6904 21.447 13.6471 21.3943 13.5944 21.352C13.5417 21.3097 13.4809 21.2788 13.4157 21.2611C13.3505 21.2435 13.2824 21.2395 13.2156 21.2494C13.1488 21.2594 13.0847 21.283 13.0275 21.3189C12.5433 21.6227 11.9823 21.7735 11.4066 21.7558C9.89504 21.7086 8.67119 20.4877 8.62046 18.9763C8.59279 18.1513 8.91986 17.3529 9.51793 16.7859C9.7142 16.5998 9.72247 16.2899 9.53639 16.0936C9.35035 15.8973 9.04033 15.8891 8.8441 16.0751C8.11642 16.765 7.68823 17.7103 7.64342 18.7058C7.44166 18.7496 7.23579 18.7716 7.02934 18.7716C5.44101 18.7716 4.14885 17.4794 4.14885 15.8911C4.14885 15.3248 4.31207 14.7776 4.62092 14.3088C4.66139 14.2473 4.6875 14.1776 4.6973 14.1047C4.7071 14.0317 4.70034 13.9576 4.67753 13.8876C4.58605 13.6071 4.53951 13.3139 4.53963 13.0188C4.53963 12.2863 4.82071 11.5936 5.33117 11.0684C5.84055 10.5443 6.52265 10.2435 7.25186 10.2215C7.34105 10.2188 7.42781 10.1918 7.50277 10.1433C7.57772 10.0949 7.63803 10.0269 7.67716 9.94675C8.15065 8.97641 9.11505 8.3736 10.194 8.3736C10.8448 8.3736 11.4785 8.6018 11.9785 9.01613C12.0706 9.09245 12.1874 9.13243 12.307 9.12852C12.4265 9.1246 12.5405 9.07706 12.6274 8.99488C13.149 8.50161 13.8318 8.22992 14.5499 8.22992C14.9268 8.22963 15.2999 8.30563 15.6466 8.45334C15.9934 8.60104 16.3066 8.8174 16.5675 9.08939C16.183 9.24716 15.8274 9.46783 15.5152 9.74235C15.3122 9.92104 15.2925 10.2305 15.4713 10.4335C15.6499 10.6365 15.9594 10.6561 16.1624 10.4774C16.6689 10.0316 17.3206 9.78578 17.9954 9.78608C19.5258 9.78608 20.771 11.0312 20.771 12.5616C20.7713 12.7925 20.7431 13.0225 20.687 13.2465C20.6584 13.3599 20.6713 13.4798 20.7234 13.5845C20.7755 13.6892 20.8633 13.7718 20.971 13.8173ZM7.72598 19.6874C7.81296 20.0922 7.96495 20.4801 8.17606 20.8362C7.35073 20.7832 6.62113 20.3329 6.19686 19.6595C6.47022 19.7201 6.74938 19.7508 7.02939 19.751C7.26454 19.751 7.49724 19.7292 7.72598 19.6874Z" fill="black"/>
<path d="M17.4236 14.3055C17.6439 14.1098 17.9304 14.0055 18.2248 14.0136C18.4964 14.0205 18.7202 13.8076 18.7276 13.5373C18.7349 13.2669 18.5216 13.0418 18.2512 13.0345C17.707 13.0196 17.1817 13.211 16.7738 13.5728C16.4586 13.8516 16.2327 14.2174 16.1245 14.6241C16.0163 15.0308 16.0307 15.4604 16.1657 15.8591C16.2346 16.0634 16.4253 16.1924 16.6297 16.1924C16.6816 16.1924 16.7344 16.1841 16.7862 16.1666C17.0425 16.0802 17.1801 15.8023 17.0937 15.546C17.0205 15.3297 17.0127 15.0966 17.0714 14.876C17.1301 14.6553 17.2526 14.4568 17.4236 14.3055ZM6.87183 12.9282C6.6806 13.1194 6.6806 13.4295 6.87183 13.6207C7.0631 13.8119 7.37308 13.8119 7.5644 13.6207C7.77154 13.4136 8.047 13.2994 8.33998 13.2994C8.63297 13.2994 8.90842 13.4135 9.11561 13.6207C9.21125 13.7163 9.33656 13.7641 9.46188 13.7641C9.58719 13.7641 9.7125 13.7163 9.80814 13.6207C9.99937 13.4295 9.99937 13.1194 9.80814 12.9282C9.41599 12.536 8.89461 12.32 8.33998 12.32C7.78535 12.32 7.26392 12.536 6.87183 12.9282ZM14.3143 11.4699C13.5047 10.6603 12.1876 10.6603 11.378 11.4699C11.1867 11.6611 11.1867 11.9712 11.378 12.1624C11.5692 12.3537 11.8792 12.3537 12.0705 12.1624C12.4981 11.7347 13.1941 11.7347 13.6218 12.1624C13.7174 12.258 13.8427 12.3058 13.9681 12.3058C14.0934 12.3058 14.2187 12.258 14.3143 12.1624C14.5055 11.9712 14.5055 11.6611 14.3143 11.4699ZM13.6444 19.0956C13.6762 19.1018 13.7081 19.1049 13.7394 19.1049C13.9686 19.1049 14.1734 18.943 14.2194 18.7096C14.3642 17.9729 14.2135 17.2239 13.7951 16.6006C13.3766 15.9773 12.7405 15.5542 12.0038 15.4094C11.7385 15.3571 11.481 15.53 11.4288 15.7953C11.3767 16.0607 11.5495 16.3181 11.8149 16.3703C12.2949 16.4647 12.7093 16.7404 12.982 17.1465C13.2546 17.5527 13.3528 18.0407 13.2584 18.5206C13.2062 18.786 13.379 19.0434 13.6444 19.0956ZM25.952 2.6022C25.9455 2.52322 25.92 2.44699 25.8776 2.38005C25.8352 2.31311 25.7772 2.25746 25.7085 2.21789L22.9037 0.60042C22.808 0.545248 22.6965 0.524043 22.5872 0.540249C22.478 0.556455 22.3774 0.60912 22.3019 0.689692L19.4594 3.72125C19.4089 3.77507 19.3712 3.8396 19.3492 3.91002C19.3272 3.98044 19.3213 4.05494 19.3321 4.12793C19.343 4.20093 19.3701 4.27054 19.4116 4.33155C19.4531 4.39257 19.5079 4.44341 19.5718 4.48028L20.5243 5.03021L18.9802 7.12018C18.9182 7.204 18.8846 7.3054 18.8843 7.40963C18.884 7.51386 18.9169 7.61548 18.9783 7.6997C19.0397 7.78392 19.1264 7.84636 19.2257 7.87791C19.325 7.90947 19.4319 7.9085 19.5306 7.87515L25.0617 6.00867C25.1509 5.97855 25.2296 5.92333 25.2883 5.84963C25.3469 5.77592 25.3831 5.68687 25.3924 5.59313C25.4017 5.4994 25.3838 5.40496 25.3408 5.32115C25.2978 5.23734 25.2315 5.16771 25.15 5.12061L24.0123 4.46373L25.7742 3.02089C25.8355 2.9707 25.8837 2.90638 25.9147 2.83346C25.9457 2.76053 25.9585 2.68117 25.952 2.6022ZM22.8438 4.15483C22.7194 4.25674 22.6529 4.41319 22.6659 4.57347C22.679 4.73375 22.7699 4.87743 22.9092 4.95779L23.7221 5.42711L20.6938 6.44901L21.6379 5.17124C21.6788 5.11578 21.7076 5.05229 21.7224 4.98494C21.7371 4.91758 21.7374 4.84787 21.7234 4.78037C21.7093 4.71287 21.6811 4.6491 21.6407 4.59324C21.6003 4.53737 21.5486 4.49067 21.4889 4.45619L20.5962 3.94078L22.7508 1.64284L24.6054 2.71228L22.8438 4.15483ZM4.99227 8.43428C5.0395 8.52535 5.11412 8.59929 5.20562 8.64567C5.29712 8.69205 5.40087 8.70852 5.50223 8.69277C5.6036 8.67702 5.69746 8.62984 5.77057 8.55789C5.84368 8.48593 5.89236 8.39283 5.90972 8.29173L6.80591 3.06624C6.82165 2.97438 6.81086 2.87994 6.7748 2.794C6.73874 2.70807 6.6789 2.63421 6.60233 2.58109C6.52575 2.52798 6.43561 2.49782 6.34249 2.49415C6.24936 2.49048 6.15713 2.51345 6.07661 2.56038L5.14506 3.1035L4.76055 0.938996C4.7471 0.863266 4.716 0.791769 4.66977 0.730299C4.62354 0.66883 4.56348 0.619117 4.49445 0.585191C4.42544 0.551241 4.3494 0.534028 4.2725 0.534947C4.1956 0.535866 4.11999 0.554891 4.05181 0.590479L1.14434 2.108C1.0411 2.16189 0.960435 2.2508 0.916836 2.3588C0.873236 2.46679 0.869553 2.58679 0.906446 2.69725L2.23891 6.68651C2.26193 6.75538 2.29997 6.81827 2.35028 6.87063C2.40058 6.923 2.4619 6.96353 2.52979 6.98929C2.59768 7.01502 2.67044 7.02533 2.74281 7.01949C2.81518 7.01364 2.88535 6.99179 2.94823 6.9555L3.93174 6.3877L4.99227 8.43428ZM2.97786 5.80746L1.96767 2.78304L3.91308 1.76771L4.30347 3.96556C4.31726 4.0432 4.34959 4.11635 4.39771 4.17881C4.44584 4.24127 4.50834 4.29119 4.57989 4.32431C4.65145 4.35744 4.72994 4.3728 4.8087 4.36908C4.88747 4.36536 4.96417 4.34268 5.03228 4.30296L5.66321 3.9351L5.19094 6.68886L4.56555 5.48196C4.53509 5.4232 4.49304 5.37123 4.44193 5.32918C4.39083 5.28713 4.33173 5.25588 4.26821 5.2373C4.20469 5.21872 4.13807 5.21321 4.07236 5.2211C4.00665 5.22899 3.94322 5.25011 3.8859 5.28319L2.97786 5.80746ZM9.25258 4.68884C9.30758 4.73642 9.37249 4.77114 9.4426 4.79048C9.5127 4.80982 9.58624 4.81329 9.65785 4.80064L10.2281 4.70011L10.1886 6.03943C10.1807 6.30974 10.3934 6.53534 10.6637 6.54332C10.6687 6.54347 10.6735 6.54352 10.6784 6.54352C10.9422 6.54352 11.1598 6.33364 11.1676 6.06822L11.2247 4.12785C11.2269 4.05516 11.2128 3.98292 11.1835 3.91636C11.1542 3.8498 11.1105 3.79059 11.0555 3.74304C11.0005 3.69549 10.9355 3.66078 10.8655 3.64143C10.7954 3.62209 10.7218 3.61859 10.6502 3.6312L10.08 3.73173L10.1194 2.39241C10.1274 2.1221 9.91465 1.8965 9.64434 1.88852C9.3752 1.88147 9.14842 2.09321 9.14044 2.36362L9.08334 4.30399C9.0812 4.37668 9.09528 4.44894 9.12455 4.51551C9.15383 4.58208 9.19756 4.64129 9.25258 4.68884Z" fill="black"/>
<path d="M23.0013 17.924C23.2717 17.924 23.491 17.7047 23.491 17.4343C23.491 17.1638 23.2717 16.9446 23.0013 16.9446C22.7308 16.9446 22.5116 17.1638 22.5116 17.4343C22.5116 17.7047 22.7308 17.924 23.0013 17.924Z" fill="black"/>
</g>
<defs>
<clipPath id="clip0_958_3568">
<rect width="25.0725" height="25.0725" fill="white" transform="translate(0.881104 0.534912)"/>
</clipPath>
</defs>
</svg>
