<svg width="26" height="26" viewBox="0 0 26 26" fill="none" xmlns="http://www.w3.org/2000/svg">
<g clip-path="url(#clip0_958_3576)">
<path d="M13.0268 25.108C13.8739 25.108 14.5607 24.4213 14.5607 23.5742C14.5607 22.727 13.8739 22.0403 13.0268 22.0403C12.1797 22.0403 11.4929 22.727 11.4929 23.5742C11.4929 24.4213 12.1797 25.108 13.0268 25.108Z" fill="#1FCFC1"/>
<path d="M13 20.2104C12.1508 20.2104 11.4626 19.522 11.4626 18.673V13.9209C11.4626 13.0718 12.1509 12.3835 13 12.3835C15.2812 12.3835 17.137 10.5277 17.137 8.24645C17.137 5.96524 15.2812 4.10933 13 4.10933C10.7188 4.10933 8.8629 5.96519 8.8629 8.2464C8.8629 9.09554 8.17453 9.78381 7.32549 9.78381C6.47645 9.78381 5.78809 9.09544 5.78809 8.2464C5.78804 4.26971 9.02328 1.03442 13 1.03442C16.9767 1.03442 20.2119 4.26966 20.2119 8.24635C20.2119 11.6956 17.778 14.5871 14.5374 15.2934V18.673C14.5374 19.5221 13.8491 20.2104 13 20.2104Z" fill="#1FCFC1"/>
<path d="M13.0269 25.6074C11.9057 25.6074 10.9936 24.6953 10.9936 23.5741C10.9936 22.453 11.9057 21.5408 13.0269 21.5408C14.148 21.5408 15.0602 22.453 15.0602 23.5741C15.0602 24.6953 14.148 25.6074 13.0269 25.6074ZM13.0269 22.5396C12.4565 22.5396 11.9924 23.0037 11.9924 23.5741C11.9924 24.1444 12.4565 24.6086 13.0269 24.6086C13.5973 24.6086 14.0613 24.1445 14.0613 23.5741C14.0613 23.0038 13.5972 22.5396 13.0269 22.5396ZM12.9999 20.7098C11.8768 20.7098 10.9631 19.7961 10.9631 18.6729V13.9208C10.9631 12.7977 11.8768 11.884 12.9999 11.884C15.0057 11.884 16.6376 10.2521 16.6376 8.24628C16.6376 6.24043 15.0057 4.60866 12.9999 4.60866C10.9941 4.60866 9.36227 6.24048 9.36227 8.24633C9.36227 9.36946 8.44855 10.2832 7.32542 10.2832C6.2023 10.2832 5.28857 9.36946 5.28857 8.24633C5.28853 3.99424 8.74785 0.534912 12.9999 0.534912C17.252 0.534912 20.7114 3.99424 20.7114 8.24633C20.7114 10.0144 20.0954 11.7433 18.9769 13.1141C17.9604 14.3599 16.5731 15.2623 15.0368 15.6845V18.6729C15.0368 19.7961 14.1231 20.7098 12.9999 20.7098ZM12.9999 3.60973C15.5566 3.60973 17.6365 5.68972 17.6365 8.24628C17.6365 10.8028 15.5566 12.8828 12.9999 12.8828C12.4276 12.8828 11.962 13.3485 11.962 13.9208V18.6729C11.962 19.2452 12.4276 19.7108 12.9999 19.7108C13.5723 19.7108 14.0379 19.2452 14.0379 18.6729V15.2933C14.0379 15.1793 14.0769 15.0687 14.1484 14.9799C14.2199 14.8912 14.3197 14.8295 14.431 14.8052C17.4913 14.1383 19.7124 11.3798 19.7124 8.24623C19.7124 4.545 16.7012 1.5338 12.9999 1.5338C9.29866 1.5338 6.28746 4.545 6.28746 8.24633C6.28746 8.81864 6.75311 9.2843 7.32542 9.2843C7.89773 9.2843 8.36339 8.81864 8.36339 8.24633C8.36339 5.68972 10.4433 3.60973 12.9999 3.60973Z" fill="#4D4D4D"/>
<path d="M13.0001 19.1149C12.7242 19.1149 12.5006 18.8913 12.5006 18.6154V15.7186C12.5006 15.4428 12.7242 15.2192 13.0001 15.2192C13.2759 15.2192 13.4995 15.4428 13.4995 15.7186V18.6154C13.4995 18.8913 13.2759 19.1149 13.0001 19.1149ZM13.0001 14.8695C12.7242 14.8695 12.5006 14.6459 12.5006 14.3701V13.9206C12.5006 13.6447 12.7242 13.4211 13.0001 13.4211C13.2759 13.4211 13.4995 13.6447 13.4995 13.9206V14.3701C13.4995 14.6459 13.2759 14.8695 13.0001 14.8695Z" fill="#4D4D4D"/>
</g>
<defs>
<clipPath id="clip0_958_3576">
<rect width="25.0725" height="25.0725" fill="white" transform="translate(0.463745 0.534912)"/>
</clipPath>
</defs>
</svg>
